<?xml version="1.0" encoding="UTF-8"?>
<svg xmlns="http://www.w3.org/2000/svg" xmlns:xlink="http://www.w3.org/1999/xlink" width="380.78pt" height="360.12pt" viewBox="0 0 380.78 360.12" version="1.1">
<defs>
<clipPath id="clip1">
  <path d="M 0 166 L 380.78125 166 L 380.78125 173 L 0 173 Z M 0 166 "/>
</clipPath>
<clipPath id="clip2">
  <path d="M 0 353 L 380.78125 353 L 380.78125 360.121094 L 0 360.121094 Z M 0 353 "/>
</clipPath>
<clipPath id="clip3">
  <path d="M 342 243 L 380.78125 243 L 380.78125 285 L 342 285 Z M 342 243 "/>
</clipPath>
<clipPath id="clip4">
  <path d="M 349 304 L 380.78125 304 L 380.78125 345 L 349 345 Z M 349 304 "/>
</clipPath>
<clipPath id="clip5">
  <path d="M 352 184 L 380.78125 184 L 380.78125 224 L 352 224 Z M 352 184 "/>
</clipPath>
</defs>
<g id="surface1">
<path style=" stroke:none;fill-rule:nonzero;fill:rgb(17.298889%,41.19873%,25.898743%);fill-opacity:1;" d="M 326.535156 87.910156 C 320.609375 87.886719 314.679688 87.898438 308.753906 87.898438 C 302.859375 87.894531 296.964844 87.875 291.070313 87.914063 C 290.109375 87.921875 289.972656 87.660156 290.273438 86.816406 C 292.964844 79.308594 295.632813 71.792969 298.304688 64.273438 C 301.707031 54.6875 305.105469 45.097656 308.507813 35.507813 C 308.617188 35.207031 308.578125 34.726563 309.027344 34.71875 C 309.53125 34.714844 309.496094 35.238281 309.605469 35.554688 C 311.582031 41.253906 313.539063 46.953125 315.503906 52.65625 C 317.789063 59.296875 320.078125 65.9375 322.355469 72.585938 C 323.996094 77.378906 325.59375 82.183594 327.261719 86.96875 C 327.566406 87.84375 327.3125 87.914063 326.535156 87.910156 M 378.140625 139.25 C 372.15625 123.273438 366.167969 107.300781 360.191406 91.320313 C 354.792969 76.890625 349.410156 62.457031 344.019531 48.027344 C 339.203125 35.140625 334.378906 22.261719 329.5625 9.375 C 328.265625 5.902344 327.394531 3.5 326.117188 0.0234375 C 309.9375 0.015625 308.792969 0.0351563 292.617188 0.0234375 C 291.648438 2.621094 291.109375 4.117188 290.128906 6.707031 C 287.449219 13.789063 284.753906 20.859375 282.074219 27.941406 C 278.472656 37.460938 274.886719 46.984375 271.289063 56.503906 C 269.375 61.570313 267.4375 66.632813 265.523438 71.699219 C 262.027344 80.96875 258.546875 90.242188 255.039063 99.511719 C 252.921875 105.117188 250.761719 110.707031 248.652344 116.316406 C 248.410156 116.964844 248.296875 117.433594 247.390625 117.433594 C 221.359375 117.402344 195.332031 117.402344 169.304688 117.429688 C 168.382813 117.429688 168.15625 117.191406 168.15625 116.285156 C 168.1875 105.359375 168.171875 94.429688 168.179688 83.5 C 168.179688 81.746094 168.042969 82.058594 169.578125 82.054688 C 191.949219 82.050781 214.324219 82.046875 236.699219 82.074219 C 237.394531 82.074219 237.960938 81.507813 237.957031 80.808594 C 237.914063 73.570313 237.933594 66.328125 237.933594 59.089844 C 237.933594 58.78125 237.902344 58.46875 237.929688 58.160156 C 237.964844 57.710938 237.726563 57.535156 237.328125 57.507813 C 236.984375 57.484375 236.640625 57.484375 236.296875 57.484375 C 213.953125 57.484375 191.617188 57.476563 169.277344 57.5 C 168.457031 57.5 168.15625 57.347656 168.160156 56.449219 C 168.191406 46.933594 168.191406 37.417969 168.160156 27.902344 C 168.15625 26.925781 168.335938 26.582031 169.433594 26.585938 C 177.4375 26.613281 185.441406 26.617188 193.445313 26.617188 C 193.449219 26.617188 193.449219 26.617188 193.449219 26.617188 L 231.011719 26.617188 C 235.03125 26.617188 239.050781 26.617188 243.074219 26.617188 C 243.265625 26.617188 243.449219 26.632813 243.613281 26.617188 L 243.746094 26.617188 C 244.0625 26.617188 244.320313 26.359375 244.320313 26.042969 L 244.320313 0.597656 C 244.320313 0.28125 244.0625 0.0234375 243.746094 0.0234375 L 239.515625 0.0234375 C 239.371094 0.0234375 239.230469 0.015625 239.089844 0.015625 C 234.183594 0.0273438 229.273438 0.0234375 224.367188 0.0234375 L 206.621094 0.0234375 C 183.699219 0.00390625 160.773438 -0.0429688 137.851563 0.105469 C 136.921875 0.113281 136.613281 0.222656 136.613281 1.273438 C 136.644531 48.398438 136.644531 95.527344 136.613281 142.652344 C 136.613281 143.714844 136.886719 143.949219 137.921875 143.949219 C 181.359375 143.921875 224.796875 143.925781 268.238281 143.921875 C 270.242188 143.921875 270.242188 143.917969 270.851563 142.058594 C 270.980469 141.664063 271.128906 141.28125 271.265625 140.890625 C 274.710938 131.140625 278.140625 121.390625 281.601563 111.648438 C 298.773438 111.648438 315.949219 111.648438 333.121094 111.644531 C 333.808594 111.644531 335.253906 111.617188 335.9375 111.589844 L 335.957031 111.589844 L 336.203125 112.363281 C 336.488281 113.386719 336.828125 114.390625 337.171875 115.394531 C 340.414063 124.910156 343.675781 134.417969 346.886719 143.945313 C 357.503906 143.910156 368.117188 143.914063 378.730469 143.941406 L 379.855469 143.949219 C 379.53125 143.007813 378.488281 140.183594 378.140625 139.25 "/>
<path style=" stroke:none;fill-rule:nonzero;fill:rgb(17.298889%,41.19873%,25.898743%);fill-opacity:1;" d="M 123.609375 26.046875 C 123.609375 26.046875 123.609375 26.046875 123.609375 26.042969 L 123.609375 0.597656 C 123.609375 0.28125 123.355469 0.0234375 123.035156 0.0234375 L 92.695313 0.0234375 C 92.378906 0.0234375 92.121094 0.28125 92.121094 0.597656 L 92.121094 5.136719 C 92.121094 31.542969 92.121094 57.949219 92.113281 84.355469 C 92.113281 86.859375 92.03125 89.367188 91.988281 91.871094 C 91.917969 96.179688 91.339844 100.398438 90.144531 104.558594 C 87.902344 112.359375 82.992188 117.328125 75.089844 119.363281 C 69.625 120.773438 64.074219 120.949219 58.492188 120.703125 C 55.121094 120.554688 51.773438 120.074219 48.597656 118.863281 C 41.191406 116.039063 36.097656 110.992188 34.027344 103.214844 C 32.933594 99.097656 32.546875 94.867188 32.546875 90.625 C 32.523438 60.871094 32.53125 31.117188 32.53125 1.363281 C 32.53125 0.0234375 32.53125 0.015625 31.167969 0.0234375 C 21.484375 0.0898438 11.796875 -0.0976563 2.113281 0.105469 C 1.152344 0.125 0.929688 0.378906 0.929688 1.3125 C 0.953125 30.722656 0.945313 60.128906 0.960938 89.539063 C 0.960938 92.253906 1.085938 94.96875 1.324219 97.679688 C 1.753906 102.546875 2.550781 107.332031 3.96875 112.015625 C 6.5 120.382813 10.738281 127.65625 17.425781 133.402344 C 21.917969 137.261719 26.976563 140.167969 32.488281 142.277344 C 38.320313 144.511719 44.371094 145.835938 50.574219 146.511719 C 55.328125 147.03125 60.097656 147.300781 64.875 147.136719 C 69.371094 146.984375 73.855469 146.605469 78.308594 145.84375 C 85.683594 144.578125 92.714844 142.363281 99.230469 138.644531 C 109.121094 133.003906 116.058594 124.878906 119.851563 114.09375 C 122.5 106.566406 123.5625 98.785156 123.59375 90.855469 C 123.652344 76.855469 123.609375 62.859375 123.609375 48.863281 "/>
<g clip-path="url(#clip1)" clip-rule="nonzero">
<path style=" stroke:none;fill-rule:nonzero;fill:rgb(17.298889%,41.19873%,25.898743%);fill-opacity:1;" d="M 380.582031 169.160156 L 378.046875 169.160156 C 363.800781 169.046875 349.558594 168.890625 335.3125 168.800781 C 315.664063 168.679688 296.011719 168.558594 276.363281 168.378906 C 260.539063 168.234375 244.714844 168.148438 228.890625 167.992188 C 211.378906 167.820313 193.867188 167.769531 176.355469 167.570313 C 160.773438 167.398438 145.191406 167.34375 129.609375 167.164063 C 114.199219 166.988281 98.789063 166.9375 83.378906 166.746094 C 68.601563 166.566406 53.816406 166.542969 39.039063 166.3125 C 29.640625 166.167969 20.238281 166.140625 10.839844 166.066406 C 8.003906 166.046875 5.167969 166.03125 2.335938 166.058594 L 0.203125 166.058594 L 0.203125 172.722656 L 2.335938 172.722656 L 2.335938 172.691406 C 2.769531 172.722656 3.273438 172.726563 3.863281 172.722656 C 18.789063 172.570313 33.714844 172.410156 48.640625 172.3125 C 68.613281 172.183594 88.585938 172.089844 108.554688 171.902344 C 128.390625 171.722656 148.222656 171.667969 168.054688 171.492188 C 188.054688 171.316406 208.050781 171.25 228.046875 171.078125 C 248.707031 170.902344 269.363281 170.84375 290.023438 170.660156 C 310.234375 170.484375 330.449219 170.46875 350.664063 170.242188 C 359.023438 170.148438 367.386719 170.195313 375.75 170.179688 C 377.296875 170.175781 378.84375 170.179688 380.582031 170.179688 L 380.578125 170.179688 L 380.582031 170.179688 "/>
</g>
<g clip-path="url(#clip2)" clip-rule="nonzero">
<path style=" stroke:none;fill-rule:nonzero;fill:rgb(17.298889%,41.19873%,25.898743%);fill-opacity:1;" d="M 0.203125 356.554688 L 2.738281 356.554688 C 16.980469 356.441406 31.226563 356.285156 45.46875 356.199219 C 65.121094 356.074219 84.773438 355.957031 104.421875 355.773438 C 120.246094 355.628906 136.070313 355.542969 151.894531 355.390625 C 169.40625 355.21875 186.917969 355.164063 204.429688 354.96875 C 220.011719 354.792969 235.59375 354.738281 251.175781 354.558594 C 266.585938 354.382813 281.996094 354.332031 297.402344 354.144531 C 312.183594 353.964844 326.964844 353.941406 341.746094 353.710938 C 351.144531 353.5625 360.546875 353.535156 369.945313 353.464844 C 372.777344 353.441406 375.613281 353.425781 378.449219 353.457031 L 380.578125 353.457031 L 380.578125 360.121094 L 378.449219 360.121094 L 378.449219 360.089844 C 378.015625 360.121094 377.507813 360.125 376.921875 360.117188 C 361.996094 359.96875 347.070313 359.808594 332.144531 359.710938 C 312.171875 359.578125 292.199219 359.484375 272.230469 359.300781 C 252.394531 359.117188 232.5625 359.0625 212.726563 358.890625 C 192.730469 358.714844 172.734375 358.644531 152.734375 358.476563 C 132.078125 358.300781 111.421875 358.242188 90.761719 358.058594 C 70.546875 357.878906 50.335938 357.867188 30.121094 357.640625 C 21.757813 357.546875 13.394531 357.59375 5.035156 357.578125 C 3.488281 357.574219 1.941406 357.578125 0.203125 357.578125 C 0.203125 357.578125 0.203125 357.574219 0.203125 357.574219 "/>
</g>
<path style=" stroke:none;fill-rule:nonzero;fill:rgb(21.598816%,20.399475%,20.799255%);fill-opacity:1;" d="M 16.828125 278.34375 C 19.640625 278.34375 21.785156 276.855469 23.265625 273.882813 C 24.742188 270.910156 25.480469 267.605469 25.480469 263.972656 L 25.480469 263.492188 C 25.410156 259.824219 24.535156 256.46875 22.863281 253.421875 C 21.1875 250.378906 18.625 248.855469 15.171875 248.855469 L 5.074219 248.855469 L 5.074219 278.34375 Z M 15.597656 244.261719 C 16.058594 244.261719 16.523438 244.289063 16.984375 244.339844 C 17.449219 244.394531 17.914063 244.457031 18.375 244.527344 C 21.582031 245.203125 24.507813 247.039063 27.164063 250.03125 C 29.816406 253.023438 31.144531 257.261719 31.144531 262.746094 C 31.144531 263.636719 31.105469 264.535156 31.035156 265.441406 C 30.964844 266.351563 30.855469 267.265625 30.714844 268.195313 C 30.109375 272.003906 28.660156 275.484375 26.359375 278.636719 C 24.066406 281.789063 20.476563 283.363281 15.597656 283.363281 L 0 283.363281 L 0 244.261719 "/>
<path style=" stroke:none;fill-rule:nonzero;fill:rgb(21.598816%,20.399475%,20.799255%);fill-opacity:1;" d="M 40.148438 267.710938 C 40.328125 268.746094 40.609375 269.796875 41.003906 270.863281 C 41.753906 273 43 274.984375 44.742188 276.820313 C 46.488281 278.65625 49.035156 279.714844 52.382813 280 C 52.628906 280.035156 52.871094 280.0625 53.101563 280.078125 C 53.335938 280.097656 53.574219 280.105469 53.824219 280.105469 C 57.351563 280.105469 60.5 278.601563 63.28125 275.589844 C 66.058594 272.582031 67.339844 268.015625 67.125 261.890625 C 66.914063 258.328125 65.609375 255.195313 63.226563 252.488281 C 60.839844 249.78125 57.652344 248.429688 53.664063 248.429688 C 53.199219 248.429688 52.738281 248.453125 52.277344 248.507813 C 51.8125 248.5625 51.347656 248.644531 50.886719 248.75 C 48.109375 249.316406 45.5625 250.886719 43.246094 253.449219 C 40.933594 256.011719 39.777344 259.824219 39.777344 264.882813 C 39.847656 265.734375 39.96875 266.679688 40.148438 267.710938 M 34.808594 260.476563 C 34.878906 259.851563 34.984375 259.21875 35.128906 258.578125 C 35.945313 254.910156 37.933594 251.535156 41.085938 248.453125 C 44.234375 245.375 48.429688 243.835938 53.664063 243.835938 C 54.304688 243.835938 54.945313 243.859375 55.585938 243.914063 C 56.226563 243.96875 56.867188 244.066406 57.511719 244.207031 C 61.175781 244.886719 64.5625 246.746094 67.660156 249.789063 C 70.757813 252.835938 72.394531 257.582031 72.574219 264.027344 C 72.574219 269.511719 70.890625 274.308594 67.527344 278.421875 C 64.160156 282.535156 59.113281 284.59375 52.382813 284.59375 C 46.503906 284.59375 42.089844 282.507813 39.132813 278.34375 C 36.175781 274.175781 34.699219 268.832031 34.699219 262.316406 C 34.699219 261.710938 34.734375 261.097656 34.808594 260.476563 "/>
<path style=" stroke:none;fill-rule:nonzero;fill:rgb(21.598816%,20.399475%,20.799255%);fill-opacity:1;" d="M 91.683594 244.261719 L 118.605469 244.261719 L 118.605469 248.429688 L 96.757813 248.429688 L 96.757813 261.089844 L 117.808594 261.089844 L 117.808594 265.683594 L 96.757813 265.683594 L 96.757813 278.714844 L 119.460938 278.714844 L 119.460938 283.363281 L 91.683594 283.363281 "/>
<path style=" stroke:none;fill-rule:nonzero;fill:rgb(21.598816%,20.399475%,20.799255%);fill-opacity:1;" d="M 127.601563 270.757813 C 127.601563 273.925781 128.660156 276.269531 130.78125 277.78125 C 132.898438 279.296875 135.242188 280.105469 137.804688 280.210938 L 138.230469 280.210938 C 140.511719 280.210938 142.605469 279.6875 144.507813 278.636719 C 146.414063 277.585938 147.507813 276.082031 147.796875 274.121094 C 147.828125 273.980469 147.847656 273.847656 147.847656 273.722656 L 147.847656 273.320313 C 147.847656 270.828125 146.804688 269.148438 144.722656 268.273438 C 142.640625 267.402344 140.261719 266.695313 137.589844 266.164063 C 137.269531 266.09375 136.96875 266.03125 136.683594 265.976563 C 136.398438 265.921875 136.113281 265.863281 135.828125 265.789063 C 132.65625 265.113281 129.78125 264.042969 127.203125 262.582031 C 124.621094 261.125 123.488281 258.238281 123.808594 253.929688 C 124.023438 251.1875 125.289063 248.820313 127.601563 246.824219 C 129.914063 244.832031 133.28125 243.835938 137.699219 243.835938 C 142.113281 243.835938 145.648438 244.847656 148.300781 246.878906 C 150.953125 248.90625 152.175781 251.8125 151.960938 255.585938 L 146.9375 255.585938 L 146.9375 255 C 146.9375 252.789063 146.003906 251.097656 144.136719 249.925781 C 142.265625 248.75 140.210938 248.125 137.964844 248.054688 L 137.644531 248.054688 C 135.472656 248.054688 133.484375 248.597656 131.6875 249.683594 C 129.890625 250.769531 128.9375 252.46875 128.832031 254.785156 C 129.113281 256.675781 130.191406 258 132.0625 258.765625 C 133.933594 259.53125 136.097656 260.179688 138.554688 260.714844 C 138.980469 260.820313 139.425781 260.929688 139.886719 261.035156 C 140.351563 261.140625 140.8125 261.25 141.277344 261.355469 C 144.164063 262.03125 146.839844 263.054688 149.316406 264.425781 C 151.789063 265.796875 153.242188 268.195313 153.671875 271.613281 C 153.882813 275.851563 152.351563 279.074219 149.078125 281.28125 C 145.800781 283.488281 142.167969 284.628906 138.179688 284.699219 L 138.019531 284.699219 C 134.101563 284.699219 130.511719 283.570313 127.253906 281.308594 C 123.996094 279.046875 122.421875 275.53125 122.527344 270.757813 "/>
<path style=" stroke:none;fill-rule:nonzero;fill:rgb(21.598816%,20.399475%,20.799255%);fill-opacity:1;" d="M 167.746094 248.429688 L 154.710938 248.429688 L 154.710938 244.261719 L 185.429688 244.261719 L 185.429688 248.429688 L 173.195313 248.429688 L 173.195313 283.363281 L 167.746094 283.363281 "/>
<path style=" stroke:none;fill-rule:nonzero;fill:rgb(21.598816%,20.399475%,20.799255%);fill-opacity:1;" d="M 204.007813 267.390625 L 198.558594 250.992188 L 192.199219 267.390625 Z M 195.191406 244.261719 L 201.496094 244.261719 L 215.757813 283.363281 L 209.882813 283.363281 L 205.664063 271.984375 L 190.972656 271.984375 L 187.179688 283.363281 L 181.304688 283.363281 "/>
<path style=" stroke:none;fill-rule:nonzero;fill:rgb(21.598816%,20.399475%,20.799255%);fill-opacity:1;" d="M 236.511719 278.34375 C 239.324219 278.34375 241.46875 276.855469 242.949219 273.882813 C 244.425781 270.910156 245.164063 267.605469 245.164063 263.972656 L 245.164063 263.492188 C 245.09375 259.824219 244.222656 256.46875 242.546875 253.421875 C 240.871094 250.378906 238.308594 248.855469 234.855469 248.855469 L 224.757813 248.855469 L 224.757813 278.34375 Z M 235.28125 244.261719 C 235.746094 244.261719 236.207031 244.289063 236.671875 244.339844 C 237.132813 244.394531 237.597656 244.457031 238.0625 244.527344 C 241.265625 245.203125 244.195313 247.039063 246.847656 250.03125 C 249.5 253.023438 250.828125 257.261719 250.828125 262.746094 C 250.828125 263.636719 250.792969 264.535156 250.722656 265.441406 C 250.648438 266.351563 250.542969 267.265625 250.402344 268.195313 C 249.792969 272.003906 248.34375 275.484375 246.046875 278.636719 C 243.75 281.789063 240.160156 283.363281 235.28125 283.363281 L 219.683594 283.363281 L 219.683594 244.261719 "/>
<path style=" stroke:none;fill-rule:nonzero;fill:rgb(21.598816%,20.399475%,20.799255%);fill-opacity:1;" d="M 259.835938 267.710938 C 260.011719 268.746094 260.296875 269.796875 260.6875 270.863281 C 261.4375 273 262.683594 274.984375 264.429688 276.820313 C 266.171875 278.65625 268.71875 279.714844 272.066406 280 C 272.316406 280.035156 272.554688 280.0625 272.789063 280.078125 C 273.019531 280.097656 273.261719 280.105469 273.507813 280.105469 C 277.035156 280.105469 280.1875 278.601563 282.964844 275.589844 C 285.742188 272.582031 287.023438 268.015625 286.8125 261.890625 C 286.597656 258.328125 285.296875 255.195313 282.910156 252.488281 C 280.523438 249.78125 277.339844 248.429688 273.347656 248.429688 C 272.886719 248.429688 272.421875 248.453125 271.960938 248.507813 C 271.496094 248.5625 271.035156 248.644531 270.570313 248.75 C 267.792969 249.316406 265.246094 250.886719 262.933594 253.449219 C 260.617188 256.011719 259.460938 259.824219 259.460938 264.882813 C 259.53125 265.734375 259.65625 266.679688 259.835938 267.710938 M 254.492188 260.476563 C 254.5625 259.851563 254.671875 259.21875 254.8125 258.578125 C 255.632813 254.910156 257.617188 251.535156 260.769531 248.453125 C 263.921875 245.375 268.113281 243.835938 273.347656 243.835938 C 273.988281 243.835938 274.632813 243.859375 275.273438 243.914063 C 275.914063 243.96875 276.554688 244.066406 277.195313 244.207031 C 280.863281 244.886719 284.246094 246.746094 287.34375 249.789063 C 290.441406 252.835938 292.078125 257.582031 292.257813 264.027344 C 292.257813 269.511719 290.578125 274.308594 287.210938 278.421875 C 283.847656 282.535156 278.796875 284.59375 272.066406 284.59375 C 266.191406 284.59375 261.773438 282.507813 258.816406 278.34375 C 255.863281 274.175781 254.386719 268.832031 254.386719 262.316406 C 254.386719 261.710938 254.421875 261.097656 254.492188 260.476563 "/>
<path style=" stroke:none;fill-rule:nonzero;fill:rgb(21.598816%,20.399475%,20.799255%);fill-opacity:1;" d="M 325.035156 278.34375 C 327.851563 278.34375 329.996094 276.855469 331.472656 273.882813 C 332.949219 270.910156 333.691406 267.605469 333.691406 263.972656 L 333.691406 263.492188 C 333.617188 259.824219 332.746094 256.46875 331.074219 253.421875 C 329.398438 250.378906 326.835938 248.855469 323.382813 248.855469 L 313.285156 248.855469 L 313.285156 278.34375 Z M 323.808594 244.261719 C 324.269531 244.261719 324.734375 244.289063 325.195313 244.339844 C 325.660156 244.394531 326.121094 244.457031 326.585938 244.527344 C 329.789063 245.203125 332.71875 247.039063 335.371094 250.03125 C 338.023438 253.023438 339.351563 257.261719 339.351563 262.746094 C 339.351563 263.636719 339.316406 264.535156 339.246094 265.441406 C 339.175781 266.351563 339.066406 267.265625 338.925781 268.195313 C 338.320313 272.003906 336.867188 275.484375 334.570313 278.636719 C 332.273438 281.789063 328.6875 283.363281 323.808594 283.363281 L 308.210938 283.363281 L 308.210938 244.261719 "/>
<g clip-path="url(#clip3)" clip-rule="nonzero">
<path style=" stroke:none;fill-rule:nonzero;fill:rgb(21.598816%,20.399475%,20.799255%);fill-opacity:1;" d="M 348.359375 267.710938 C 348.535156 268.746094 348.820313 269.796875 349.214844 270.863281 C 349.960938 273 351.207031 274.984375 352.953125 276.820313 C 354.695313 278.65625 357.242188 279.714844 360.589844 280 C 360.839844 280.035156 361.082031 280.0625 361.3125 280.078125 C 361.542969 280.097656 361.785156 280.105469 362.035156 280.105469 C 365.558594 280.105469 368.710938 278.601563 371.488281 275.589844 C 374.265625 272.582031 375.546875 268.015625 375.335938 261.890625 C 375.121094 258.328125 373.820313 255.195313 371.433594 252.488281 C 369.050781 249.78125 365.863281 248.429688 361.875 248.429688 C 361.410156 248.429688 360.945313 248.453125 360.484375 248.507813 C 360.019531 248.5625 359.558594 248.644531 359.097656 248.75 C 356.316406 249.316406 353.769531 250.886719 351.457031 253.449219 C 349.140625 256.011719 347.984375 259.824219 347.984375 264.882813 C 348.054688 265.734375 348.179688 266.679688 348.359375 267.710938 M 343.015625 260.476563 C 343.089844 259.851563 343.195313 259.21875 343.339844 258.578125 C 344.15625 254.910156 346.140625 251.535156 349.292969 248.453125 C 352.445313 245.375 356.636719 243.835938 361.875 243.835938 C 362.515625 243.835938 363.15625 243.859375 363.796875 243.914063 C 364.4375 243.96875 365.078125 244.066406 365.71875 244.207031 C 369.386719 244.886719 372.769531 246.746094 375.871094 249.789063 C 378.96875 252.835938 380.605469 257.582031 380.785156 264.027344 C 380.785156 269.511719 379.101563 274.308594 375.734375 278.421875 C 372.371094 282.535156 367.320313 284.59375 360.589844 284.59375 C 354.714844 284.59375 350.300781 282.507813 347.34375 278.34375 C 344.386719 274.175781 342.910156 268.832031 342.910156 262.316406 C 342.910156 261.710938 342.945313 261.097656 343.015625 260.476563 "/>
</g>
<path style=" stroke:none;fill-rule:nonzero;fill:rgb(21.598816%,20.399475%,20.799255%);fill-opacity:1;" d="M 22.703125 327.640625 L 17.253906 311.242188 L 10.898438 327.640625 Z M 13.890625 304.511719 L 20.191406 304.511719 L 34.457031 343.613281 L 28.578125 343.613281 L 24.359375 332.234375 L 9.667969 332.234375 L 5.875 343.613281 L 0 343.613281 "/>
<path style=" stroke:none;fill-rule:nonzero;fill:rgb(21.598816%,20.399475%,20.799255%);fill-opacity:1;" d="M 49.308594 304.511719 L 56.839844 304.511719 L 67.789063 337.308594 L 78.742188 304.511719 L 86.328125 304.511719 L 86.328125 343.613281 L 80.828125 343.613281 L 80.828125 312.46875 L 70.300781 343.613281 L 65.28125 343.613281 L 54.757813 312.898438 L 54.757813 343.613281 L 49.308594 343.613281 "/>
<path style=" stroke:none;fill-rule:nonzero;fill:rgb(21.598816%,20.399475%,20.799255%);fill-opacity:1;" d="M 123.886719 327.640625 L 118.4375 311.242188 L 112.078125 327.640625 Z M 115.070313 304.511719 L 121.375 304.511719 L 135.636719 343.613281 L 129.761719 343.613281 L 125.539063 332.234375 L 110.851563 332.234375 L 107.058594 343.613281 L 101.183594 343.613281 "/>
<path style=" stroke:none;fill-rule:nonzero;fill:rgb(21.598816%,20.399475%,20.799255%);fill-opacity:1;" d="M 151.386719 339.394531 L 174.515625 308.675781 L 153.042969 308.675781 L 153.042969 304.511719 L 181.246094 304.511719 L 181.246094 308.675781 L 158.117188 339.394531 L 181.246094 339.394531 L 181.246094 343.613281 L 151.386719 343.613281 "/>
<path style=" stroke:none;fill-rule:nonzero;fill:rgb(21.598816%,20.399475%,20.799255%);fill-opacity:1;" d="M 202.527344 327.960938 C 202.703125 328.996094 202.988281 330.042969 203.378906 331.113281 C 204.128906 333.25 205.375 335.234375 207.121094 337.070313 C 208.863281 338.902344 211.410156 339.960938 214.757813 340.246094 C 215.007813 340.285156 215.246094 340.3125 215.480469 340.328125 C 215.710938 340.347656 215.953125 340.355469 216.199219 340.355469 C 219.726563 340.355469 222.878906 338.851563 225.65625 335.839844 C 228.433594 332.832031 229.714844 328.265625 229.503906 322.136719 C 229.289063 318.578125 227.988281 315.445313 225.601563 312.738281 C 223.214844 310.03125 220.027344 308.675781 216.039063 308.675781 C 215.578125 308.675781 215.113281 308.703125 214.652344 308.757813 C 214.1875 308.8125 213.726563 308.890625 213.261719 308.996094 C 210.484375 309.566406 207.9375 311.132813 205.625 313.699219 C 203.308594 316.261719 202.152344 320.074219 202.152344 325.128906 C 202.222656 325.984375 202.347656 326.929688 202.527344 327.960938 M 197.183594 320.722656 C 197.253906 320.101563 197.363281 319.46875 197.503906 318.828125 C 198.324219 315.160156 200.308594 311.785156 203.460938 308.703125 C 206.613281 305.625 210.804688 304.082031 216.039063 304.082031 C 216.679688 304.082031 217.324219 304.109375 217.964844 304.164063 C 218.605469 304.214844 219.246094 304.316406 219.886719 304.457031 C 223.554688 305.132813 226.9375 306.996094 230.035156 310.039063 C 233.132813 313.085938 234.773438 317.828125 234.949219 324.273438 C 234.949219 329.761719 233.269531 334.558594 229.902344 338.671875 C 226.539063 342.785156 221.488281 344.839844 214.757813 344.839844 C 208.882813 344.839844 204.464844 342.757813 201.511719 338.589844 C 198.554688 334.425781 197.078125 329.082031 197.078125 322.566406 C 197.078125 321.960938 197.113281 321.347656 197.183594 320.722656 "/>
<path style=" stroke:none;fill-rule:nonzero;fill:rgb(21.598816%,20.399475%,20.799255%);fill-opacity:1;" d="M 250.351563 304.511719 L 256.65625 304.511719 L 275.992188 336.027344 L 275.992188 304.511719 L 281.066406 304.511719 L 281.066406 343.613281 L 275.136719 343.613281 L 255.371094 312.46875 L 255.371094 343.613281 L 250.351563 343.613281 "/>
<path style=" stroke:none;fill-rule:nonzero;fill:rgb(21.598816%,20.399475%,20.799255%);fill-opacity:1;" d="M 320.882813 327.640625 L 315.433594 311.242188 L 309.074219 327.640625 Z M 312.066406 304.511719 L 318.371094 304.511719 L 332.632813 343.613281 L 326.757813 343.613281 L 322.535156 332.234375 L 307.847656 332.234375 L 304.054688 343.613281 L 298.179688 343.613281 "/>
<g clip-path="url(#clip4)" clip-rule="nonzero">
<path style=" stroke:none;fill-rule:nonzero;fill:rgb(21.598816%,20.399475%,20.799255%);fill-opacity:1;" d="M 354.597656 331.007813 C 354.597656 334.175781 355.65625 336.515625 357.777344 338.03125 C 359.894531 339.542969 362.238281 340.355469 364.800781 340.460938 L 365.230469 340.460938 C 367.507813 340.460938 369.601563 339.9375 371.503906 338.886719 C 373.410156 337.835938 374.503906 336.332031 374.789063 334.371094 C 374.824219 334.230469 374.84375 334.097656 374.84375 333.972656 L 374.84375 333.570313 C 374.84375 331.078125 373.800781 329.394531 371.71875 328.523438 C 369.636719 327.652344 367.257813 326.945313 364.585938 326.410156 C 364.265625 326.339844 363.964844 326.277344 363.679688 326.226563 C 363.394531 326.171875 363.109375 326.109375 362.824219 326.039063 C 359.65625 325.363281 356.78125 324.292969 354.199219 322.832031 C 351.617188 321.375 350.484375 318.488281 350.804688 314.179688 C 351.019531 311.4375 352.285156 309.070313 354.597656 307.074219 C 356.914063 305.082031 360.277344 304.082031 364.695313 304.082031 C 369.109375 304.082031 372.644531 305.097656 375.296875 307.128906 C 377.949219 309.15625 379.171875 312.0625 378.957031 315.835938 L 373.9375 315.835938 L 373.9375 315.246094 C 373.9375 313.039063 373 311.347656 371.128906 310.171875 C 369.261719 308.996094 367.203125 308.375 364.960938 308.304688 L 364.640625 308.304688 C 362.46875 308.304688 360.480469 308.847656 358.683594 309.933594 C 356.886719 311.019531 355.933594 312.71875 355.828125 315.035156 C 356.109375 316.921875 357.1875 318.25 359.058594 319.011719 C 360.929688 319.78125 363.089844 320.429688 365.546875 320.964844 C 365.976563 321.070313 366.421875 321.175781 366.882813 321.285156 C 367.347656 321.390625 367.808594 321.496094 368.273438 321.605469 C 371.160156 322.28125 373.835938 323.304688 376.3125 324.675781 C 378.785156 326.046875 380.238281 328.441406 380.664063 331.859375 C 380.878906 336.097656 379.347656 339.320313 376.074219 341.53125 C 372.796875 343.738281 369.164063 344.875 365.175781 344.949219 L 365.015625 344.949219 C 361.097656 344.949219 357.507813 343.816406 354.25 341.554688 C 350.992188 339.296875 349.414063 335.777344 349.523438 331.007813 "/>
</g>
<path style=" stroke:none;fill-rule:nonzero;fill:rgb(21.598816%,20.399475%,20.799255%);fill-opacity:1;" d="M 0 184.011719 L 5.449219 184.011719 L 5.449219 211.738281 C 5.449219 214.550781 6.453125 216.679688 8.46875 218.121094 C 10.476563 219.5625 12.675781 220.285156 15.0625 220.285156 C 17.484375 220.285156 19.710938 219.574219 21.742188 218.148438 C 23.769531 216.722656 24.785156 214.585938 24.785156 211.738281 L 24.785156 184.011719 L 30.289063 184.011719 L 30.289063 211.738281 C 30.289063 215.726563 28.730469 218.808594 25.613281 220.980469 C 22.496094 223.152344 19.070313 224.273438 15.332031 224.34375 L 15.011719 224.34375 C 11.449219 224.34375 8.152344 223.335938 5.128906 221.324219 C 2.101563 219.316406 0.390625 216.117188 0 211.738281 "/>
<path style=" stroke:none;fill-rule:nonzero;fill:rgb(21.598816%,20.399475%,20.799255%);fill-opacity:1;" d="M 37.765625 184.011719 L 44.070313 184.011719 L 63.40625 215.53125 L 63.40625 184.011719 L 68.480469 184.011719 L 68.480469 223.117188 L 62.550781 223.117188 L 42.789063 191.972656 L 42.789063 223.117188 L 37.765625 223.117188 "/>
<path style=" stroke:none;fill-rule:nonzero;fill:rgb(21.598816%,20.399475%,20.799255%);fill-opacity:1;" d="M 75.960938 223.117188 L 81.035156 223.117188 L 81.035156 184.015625 L 75.960938 184.015625 Z M 75.960938 223.117188 "/>
<path style=" stroke:none;fill-rule:nonzero;fill:rgb(21.598816%,20.399475%,20.799255%);fill-opacity:1;" d="M 86.234375 184.011719 L 91.683594 184.011719 L 103.0625 216.8125 L 113.960938 184.011719 L 119.460938 184.011719 L 105.574219 223.117188 L 100.070313 223.117188 "/>
<path style=" stroke:none;fill-rule:nonzero;fill:rgb(21.598816%,20.399475%,20.799255%);fill-opacity:1;" d="M 122.878906 184.011719 L 149.800781 184.011719 L 149.800781 188.179688 L 127.953125 188.179688 L 127.953125 200.839844 L 149 200.839844 L 149 205.433594 L 127.953125 205.433594 L 127.953125 218.46875 L 150.65625 218.46875 L 150.65625 223.117188 L 122.878906 223.117188 "/>
<path style=" stroke:none;fill-rule:nonzero;fill:rgb(21.598816%,20.399475%,20.799255%);fill-opacity:1;" d="M 174.785156 201.640625 C 174.894531 201.675781 175 201.695313 175.105469 201.695313 L 175.425781 201.695313 C 177.066406 201.695313 178.445313 201.019531 179.566406 199.664063 C 180.6875 198.3125 181.265625 196.816406 181.304688 195.179688 L 181.304688 194.855469 C 181.265625 193.398438 180.652344 192.035156 179.460938 190.769531 C 178.265625 189.507813 176.28125 188.785156 173.503906 188.605469 L 161.324219 188.605469 L 161.324219 201.640625 Z M 156.25 184.011719 L 176.066406 184.011719 C 178.808594 184.011719 181.144531 184.902344 183.066406 186.683594 C 184.988281 188.464844 186.144531 190.941406 186.539063 194.109375 C 186.539063 194.75 186.503906 195.4375 186.429688 196.164063 C 186.359375 196.894531 186.21875 197.636719 186.003906 198.382813 C 185.683594 199.378906 185.148438 200.351563 184.402344 201.292969 C 183.652344 202.238281 182.550781 203.066406 181.089844 203.777344 C 183.046875 204.738281 184.304688 205.996094 184.855469 207.542969 C 185.40625 209.09375 185.699219 210.6875 185.738281 212.324219 L 185.738281 214.410156 C 185.699219 215.941406 185.765625 217.371094 185.925781 218.707031 C 186.085938 220.042969 186.714844 221.085938 187.820313 221.832031 L 187.820313 223.117188 L 181.515625 223.117188 C 181.265625 222.402344 181.078125 221.671875 180.957031 220.925781 C 180.828125 220.175781 180.75 219.410156 180.714844 218.628906 C 180.679688 218.273438 180.652344 217.898438 180.636719 217.507813 C 180.617188 217.117188 180.609375 216.742188 180.609375 216.386719 L 180.609375 215.796875 C 180.535156 213.519531 180.234375 211.46875 179.699219 209.652344 C 179.164063 207.839844 177.386719 206.714844 174.359375 206.289063 L 161.324219 206.289063 L 161.324219 223.117188 L 156.25 223.117188 "/>
<path style=" stroke:none;fill-rule:nonzero;fill:rgb(21.598816%,20.399475%,20.799255%);fill-opacity:1;" d="M 197.648438 210.507813 C 197.648438 213.679688 198.710938 216.019531 200.828125 217.53125 C 202.945313 219.046875 205.289063 219.855469 207.851563 219.964844 L 208.28125 219.964844 C 210.558594 219.964844 212.652344 219.4375 214.554688 218.386719 C 216.460938 217.339844 217.554688 215.832031 217.839844 213.875 C 217.878906 213.734375 217.894531 213.597656 217.894531 213.472656 L 217.894531 213.070313 C 217.894531 210.578125 216.851563 208.898438 214.769531 208.023438 C 212.6875 207.152344 210.308594 206.449219 207.636719 205.914063 C 207.316406 205.84375 207.015625 205.78125 206.730469 205.726563 C 206.445313 205.675781 206.160156 205.613281 205.878906 205.539063 C 202.707031 204.863281 199.832031 203.796875 197.25 202.335938 C 194.667969 200.875 193.535156 197.992188 193.855469 193.683594 C 194.070313 190.941406 195.335938 188.570313 197.648438 186.578125 C 199.964844 184.582031 203.328125 183.585938 207.746094 183.585938 C 212.160156 183.585938 215.695313 184.601563 218.347656 186.632813 C 221.003906 188.660156 222.222656 191.5625 222.007813 195.339844 L 216.988281 195.339844 L 216.988281 194.75 C 216.988281 192.542969 216.050781 190.851563 214.183594 189.675781 C 212.3125 188.5 210.257813 187.878906 208.011719 187.804688 L 207.691406 187.804688 C 205.519531 187.804688 203.535156 188.347656 201.734375 189.433594 C 199.9375 190.523438 198.984375 192.222656 198.878906 194.535156 C 199.164063 196.425781 200.238281 197.75 202.109375 198.515625 C 203.980469 199.28125 206.144531 199.933594 208.601563 200.464844 C 209.027344 200.570313 209.472656 200.679688 209.9375 200.785156 C 210.398438 200.894531 210.859375 201 211.324219 201.105469 C 214.210938 201.785156 216.886719 202.808594 219.363281 204.179688 C 221.839844 205.550781 223.289063 207.945313 223.71875 211.363281 C 223.929688 215.601563 222.398438 218.824219 219.125 221.03125 C 215.847656 223.238281 212.214844 224.378906 208.226563 224.449219 L 208.066406 224.449219 C 204.148438 224.449219 200.5625 223.320313 197.300781 221.058594 C 194.046875 218.796875 192.46875 215.28125 192.574219 210.507813 "/>
<path style=" stroke:none;fill-rule:nonzero;fill:rgb(21.598816%,20.399475%,20.799255%);fill-opacity:1;" d="M 230.183594 223.117188 L 235.257813 223.117188 L 235.257813 184.015625 L 230.183594 184.015625 Z M 230.183594 223.117188 "/>
<path style=" stroke:none;fill-rule:nonzero;fill:rgb(21.598816%,20.399475%,20.799255%);fill-opacity:1;" d="M 262.03125 218.09375 C 264.84375 218.09375 266.988281 216.609375 268.46875 213.632813 C 269.945313 210.660156 270.683594 207.355469 270.683594 203.726563 L 270.683594 203.242188 C 270.613281 199.574219 269.738281 196.21875 268.066406 193.175781 C 266.390625 190.128906 263.828125 188.605469 260.375 188.605469 L 250.277344 188.605469 L 250.277344 218.09375 Z M 260.800781 184.011719 C 261.261719 184.011719 261.726563 184.039063 262.191406 184.09375 C 262.652344 184.148438 263.113281 184.210938 263.578125 184.28125 C 266.785156 184.957031 269.714844 186.789063 272.367188 189.78125 C 275.019531 192.773438 276.34375 197.011719 276.34375 202.496094 C 276.34375 203.386719 276.308594 204.285156 276.238281 205.195313 C 276.167969 206.101563 276.058594 207.019531 275.917969 207.945313 C 275.3125 211.757813 273.863281 215.238281 271.566406 218.386719 C 269.265625 221.539063 265.679688 223.113281 260.800781 223.113281 L 245.203125 223.113281 L 245.203125 184.011719 "/>
<path style=" stroke:none;fill-rule:nonzero;fill:rgb(21.598816%,20.399475%,20.799255%);fill-opacity:1;" d="M 300.078125 207.144531 L 294.628906 190.742188 L 288.269531 207.144531 Z M 291.261719 184.011719 L 297.566406 184.011719 L 311.828125 223.117188 L 305.953125 223.117188 L 301.734375 211.738281 L 287.042969 211.738281 L 283.25 223.117188 L 277.375 223.117188 "/>
<path style=" stroke:none;fill-rule:nonzero;fill:rgb(21.598816%,20.399475%,20.799255%);fill-opacity:1;" d="M 332.882813 218.09375 C 335.695313 218.09375 337.839844 216.609375 339.320313 213.632813 C 340.796875 210.660156 341.535156 207.355469 341.535156 203.726563 L 341.535156 203.242188 C 341.464844 199.574219 340.59375 196.21875 338.917969 193.175781 C 337.242188 190.128906 334.679688 188.605469 331.226563 188.605469 L 321.128906 188.605469 L 321.128906 218.09375 Z M 331.652344 184.011719 C 332.117188 184.011719 332.578125 184.039063 333.042969 184.09375 C 333.503906 184.148438 333.96875 184.210938 334.433594 184.28125 C 337.636719 184.957031 340.566406 186.789063 343.21875 189.78125 C 345.871094 192.773438 347.199219 197.011719 347.199219 202.496094 C 347.199219 203.386719 347.164063 204.285156 347.09375 205.195313 C 347.019531 206.101563 346.914063 207.019531 346.773438 207.945313 C 346.164063 211.757813 344.714844 215.238281 342.417969 218.386719 C 340.121094 221.539063 336.53125 223.113281 331.652344 223.113281 L 316.054688 223.113281 L 316.054688 184.011719 "/>
<g clip-path="url(#clip5)" clip-rule="nonzero">
<path style=" stroke:none;fill-rule:nonzero;fill:rgb(21.598816%,20.399475%,20.799255%);fill-opacity:1;" d="M 352.90625 184.011719 L 379.832031 184.011719 L 379.832031 188.179688 L 357.980469 188.179688 L 357.980469 200.839844 L 379.027344 200.839844 L 379.027344 205.433594 L 357.980469 205.433594 L 357.980469 218.46875 L 380.683594 218.46875 L 380.683594 223.117188 L 352.90625 223.117188 "/>
</g>
</g>
</svg>
